<?xml version="1.0"?><svg data-name="024_HOLIDAYS" id="_024_HOLIDAYS" viewBox="0 0 24 24" xmlns="http://www.w3.org/2000/svg"><defs><style>.cls-1{fill:#333;}</style></defs><path class="cls-1" d="M9,17.71c-4,0-7-4.6-7-8.71C2,2.8,5.74,2,9,2s7,.8,7,7C16,13.11,13,17.71,9,17.71ZM9,4C5.76,4,4,4.8,4,9c0,3.45,2.43,6.71,5,6.71S14,12.45,14,9C14,4.8,12.24,4,9,4Z"/><path class="cls-1" d="M11,9.14a1,1,0,0,1-1-1V8a1,1,0,0,1,2,0v.14A1,1,0,0,1,11,9.14Z"/><path class="cls-1" d="M7,9.14a1,1,0,0,1-1-1V8A1,1,0,0,1,8,8v.14A1,1,0,0,1,7,9.14Z"/><path class="cls-1" d="M7.42,11.5a.5.5,0,0,0-.48.65A2.36,2.36,0,0,0,9,13.79a2.36,2.36,0,0,0,2.06-1.64.5.5,0,0,0-.48-.65Z"/><path class="cls-1" d="M15.5,22a5.79,5.79,0,0,1-3.63-1.36,1,1,0,0,1-.15-1.4,1,1,0,0,1,1.41-.16A3.79,3.79,0,0,0,15.5,20c2.57,0,5-3.26,5-6.71,0-4.21-1.76-5-5-5a1,1,0,0,1,0-2c3.26,0,7,.79,7,7C22.5,17.4,19.51,22,15.5,22Z"/><path class="cls-1" d="M17.5,13.5a.84.84,0,0,1-.38-.08,1.15,1.15,0,0,1-.33-.21,1,1,0,0,1-.29-.71,1.05,1.05,0,0,1,.29-.71,1.15,1.15,0,0,1,.33-.21,1,1,0,0,1,.76,0,1,1,0,0,1,.33.21,1.05,1.05,0,0,1,.29.71,1,1,0,0,1-.29.71,1.15,1.15,0,0,1-.33.21A.84.84,0,0,1,17.5,13.5Z"/><path class="cls-1" d="M13.92,17.57a.5.5,0,0,1-.48-.65,2.35,2.35,0,0,1,2.06-1.63,2.35,2.35,0,0,1,2.06,1.63.5.5,0,0,1-.48.65Z"/></svg>