<?xml version="1.0" standalone="no"?>
<!DOCTYPE svg PUBLIC "-//W3C//DTD SVG 20010904//EN"
 "http://www.w3.org/TR/2001/REC-SVG-20010904/DTD/svg10.dtd">
<svg version="1.0" xmlns="http://www.w3.org/2000/svg"
 width="48.000000pt" height="48.000000pt" viewBox="0 0 48.000000 48.000000"
 preserveAspectRatio="xMidYMid meet">

<g transform="translate(0.000000,48.000000) scale(0.100000,-0.100000)"
fill="#000000" stroke="none">
<path d="M257 466 c-4 -10 -19 -16 -41 -16 -37 0 -46 -12 -46 -60 0 -16 7 -30
15 -34 12 -4 15 3 15 29 0 31 3 35 25 35 l25 0 0 -155 0 -155 -23 0 c-13 0
-28 5 -35 12 -9 9 -13 7 -18 -5 -9 -25 4 -37 41 -37 27 0 34 -4 37 -22 3 -21
7 -23 69 -21 36 1 78 7 92 12 l27 11 -2 192 -3 193 -46 11 c-97 24 -126 26
-132 10z m53 -186 c0 -5 -7 -10 -15 -10 -8 0 -15 5 -15 10 0 6 7 10 15 10 8 0
15 -4 15 -10z"/>
<path d="M120 310 c0 -17 -6 -20 -40 -20 l-40 0 0 -50 0 -50 35 0 c26 0 38 -5
43 -20 7 -18 11 -17 64 18 32 20 58 42 58 49 0 7 -27 31 -60 53 -54 36 -60 39
-60 20z"/>
</g>
</svg>
