<?xml version="1.0" standalone="no"?>
<!DOCTYPE svg PUBLIC "-//W3C//DTD SVG 20010904//EN"
 "http://www.w3.org/TR/2001/REC-SVG-20010904/DTD/svg10.dtd">
<svg version="1.0" xmlns="http://www.w3.org/2000/svg"
 width="48.000000pt" height="48.000000pt" viewBox="0 0 48.000000 48.000000"
 preserveAspectRatio="xMidYMid meet">

<g transform="translate(0.000000,48.000000) scale(0.100000,-0.100000)"
fill="#000000" stroke="none">
<path d="M257 466 c-4 -10 -19 -16 -41 -16 -37 0 -46 -12 -46 -60 0 -41 18
-47 22 -8 2 28 8 34 31 36 l27 3 0 -155 0 -156 -23 0 c-13 0 -28 5 -34 11 -8
8 -13 8 -18 -1 -13 -22 4 -40 39 -40 28 0 35 -4 38 -22 3 -21 7 -23 69 -21 36
1 78 7 92 12 l27 11 -2 192 -3 193 -46 11 c-97 24 -126 26 -132 10z m53 -186
c0 -5 -7 -10 -15 -10 -8 0 -15 5 -15 10 0 6 7 10 15 10 8 0 15 -4 15 -10z"/>
<path d="M82 285 c-28 -20 -52 -41 -52 -48 0 -6 24 -28 53 -47 67 -45 67 -45
67 -21 0 18 6 21 40 21 l40 0 0 50 0 50 -40 0 c-29 0 -40 4 -40 15 0 22 -9 19
-68 -20z"/>
</g>
</svg>
